<svg width="700" height="150" xmlns="http://www.w3.org/2000/svg">
    <title>77 all</title>

    <g>
        <title>background</title>
        <rect fill="none" id="canvas_background" height="150" width="700" y="-1" x="-1"/>
    </g>
    <g>
        <title>Layer 1</title>
        <path id="svg_1" d="m125.37197,101.50029a3.92153,3.78502 0 0 0 -0.15687,-0.48259l-0.05882,-0.16086a3.92153,3.78502 0 0 0 -0.31372,-0.56775l-0.08823,-0.12301a3.92153,3.78502 0 0 0 -0.34313,-0.39743l-0.13726,-0.13248a3.92153,3.78502 0 0 0 -0.43137,-0.34065l-0.10784,-0.0757a3.92153,3.78502 0 0 0 -0.52941,-0.28388l-14.39205,-6.41562l0,-9.6802a3.92153,3.78502 0 0 0 -1.96077,-3.27405l-10.69599,-5.82894l0,-11.44024a3.92153,3.78502 0 0 0 -0.08823,-0.67184c0,-0.06624 0,-0.13248 0,-0.19871a3.92153,3.78502 0 0 0 -0.15687,-0.48259l-0.05882,-0.16086a3.92153,3.78502 0 0 0 -0.31372,-0.56775l-0.08823,-0.12301a3.92153,3.78502 0 0 0 -0.34313,-0.39743l-0.16667,-0.1514a3.92153,3.78502 0 0 0 -0.43137,-0.34065l-0.10784,-0.0757a3.92153,3.78502 0 0 0 -0.52941,-0.28388l-15.76458,-6.99283a3.92153,3.78502 0 0 0 -3.28429,0l-15.76458,7.01176a3.92153,3.78502 0 0 0 -0.52941,0.28388l-0.10784,0.0757a3.92153,3.78502 0 0 0 -0.43137,0.34065l-0.13726,0.13248a3.92153,3.78502 0 0 0 -0.34313,0.39743l-0.08823,0.12301a3.92153,3.78502 0 0 0 -0.31372,0.56775l-0.05882,0.16086a3.92153,3.78502 0 0 0 -0.19608,0.49205c0,0.06624 0,0.13248 0,0.19871a3.92153,3.78502 0 0 0 -0.06862,0.6813l0,11.42131l-10.78423,6.07496a3.92153,3.78502 0 0 0 -1.96077,3.28351l0.06862,8.62039a3.92153,3.78502 0 0 0 -0.56862,0.17979l-15.78419,7.04014a3.92153,3.78502 0 0 0 -0.52941,0.28388l-0.10784,0.06624a3.92153,3.78502 0 0 0 -0.43137,0.34065l-0.13726,0.13248a3.92153,3.78502 0 0 0 -0.34313,0.39743l-0.08823,0.12301a3.92153,3.78502 0 0 0 -0.31372,0.56775l-0.05882,0.16086a3.92153,3.78502 0 0 0 -0.15687,0.48259c0,0.06624 0,0.13248 0,0.19871a3.92153,3.78502 0 0 0 -0.06862,0.6813l0,16.87174a3.92153,3.78502 0 0 0 2.2843,3.43491l15.71556,7.01176a3.92153,3.78502 0 0 0 3.28429,0l6.07838,-2.70629l21.79395,12.04584a3.92153,3.78502 0 0 0 3.92153,0l20.49984,-11.54432l5.05878,2.25209a3.92153,3.78502 0 0 0 3.28429,0l15.76458,-7.01176a3.92153,3.78502 0 0 0 2.27449,-3.48222l0,-16.86228a3.92153,3.78502 0 0 0 -0.06862,-0.6813c-0.0098,-0.06624 -0.01961,-0.13248 -0.03921,-0.19871l-0.00003,0zm-48.91138,-42.05162l6.40191,2.83877l-6.40191,2.83877l-6.40191,-2.83877l6.40191,-2.83877zm11.84305,8.76233l0,8.5163l-7.9215,3.539l0,-8.5163l7.9215,-3.539zm-23.69589,0l7.93131,3.52953l0,8.5163l-7.9215,-3.52953l-0.0098,-8.5163zm-23.37236,52.12924l-7.9117,-3.52007l0,-8.5163l7.9215,3.52953l-0.0098,8.50684zm3.92153,-15.1401l-6.40191,-2.83877l6.40191,-2.83877l6.40191,2.83877l-6.40191,2.83877zm11.85285,11.62002l-7.9215,3.52953l0,-8.5163l7.9215,-3.52953l0,8.5163zm19.60769,14.52503l-14.98027,-8.25135l0.98039,-0.41635a3.92153,3.78502 0 0 0 2.2843,-3.43491l0,-16.86228a3.92153,3.78502 0 0 0 -0.06862,-0.6813c0,-0.06624 0,-0.13248 0,-0.19871a3.92153,3.78502 0 0 0 -0.15687,-0.48259l-0.05882,-0.16086a3.92153,3.78502 0 0 0 -0.31372,-0.56775l-0.08823,-0.12301a3.92153,3.78502 0 0 0 -0.34313,-0.39743l-0.13726,-0.13248a3.92153,3.78502 0 0 0 -0.43137,-0.34065l-0.10784,-0.0757a3.92153,3.78502 0 0 0 -0.52941,-0.28388l-10.7156,-4.73128l0,-8.93266l6.05878,-3.41598a3.92153,3.78502 0 0 0 1.09803,0.73808l15.76458,7.01176a3.92153,3.78502 0 0 0 3.28429,0l15.76458,-7.01176a3.92153,3.78502 0 0 0 1.14705,-0.78539l5.8823,3.2362l0,8.30813l-12.54892,5.58291a3.92153,3.78502 0 0 0 -0.52941,0.28388l-0.10784,0.0757a3.92153,3.78502 0 0 0 -0.43137,0.34065l-0.13726,0.13248a3.92153,3.78502 0 0 0 -0.34313,0.39743l-0.08823,0.12301a3.92153,3.78502 0 0 0 -0.31372,0.56775l-0.05882,0.16086a3.92153,3.78502 0 0 0 -0.15687,0.48259c0,0.06624 0,0.13248 0,0.19871a3.92153,3.78502 0 0 0 -0.06862,0.6813l0,16.86228a3.92153,3.78502 0 0 0 2.2843,3.43491l2.00979,0.89894l-13.84303,7.76876l-0.00002,0zm25.26451,-11.00496l-7.9215,-3.52953l0,-8.5163l7.9215,3.52953l0,8.5163zm3.92153,-15.1401l-6.40191,-2.83877l6.40191,-2.83877l6.40191,2.83877l-6.40191,2.83877zm11.83324,11.62002l-7.9215,3.52953l0,-8.5163l7.9215,-3.54846l0,8.53523z" fill="#0015ec"/>
        <text fill="#0015ec" stroke="#000" stroke-width="0" x="149.71666" y="114" id="svg_2" font-size="52" font-family="Helvetica, Arial, sans-serif" text-anchor="start" xml:space="preserve" font-weight="bold">BOILERPLATE API</text>
    </g>
</svg>
